<svg viewBox="0 0 1200 630" xmlns="http://www.w3.org/2000/svg">
  <rect width="1200" height="630" fill="#0a0a0a"/>
  <circle cx="160" cy="100" r="220" fill="#e8c84a" opacity="0.13"/>
  <circle cx="1040" cy="540" r="240" fill="#7B5CFF" opacity="0.16"/>
  <g fill="none" stroke="#f2f0eb" stroke-opacity="0.5" stroke-width="2.5">
    <g transform="translate(260,240)">
      <rect x="0" y="0" width="120" height="120" rx="16"/>
      <path d="M30 60 L50 80 L92 38" stroke="#e8c84a"/>
    </g>
    <g transform="translate(440,240)">
      <rect x="0" y="0" width="120" height="120" rx="16"/>
      <circle cx="60" cy="50" r="20"/>
      <path d="M30 95 Q60 70 90 95"/>
    </g>
    <g transform="translate(620,240)">
      <rect x="0" y="0" width="120" height="120" rx="16"/>
      <path d="M20 70 L40 40 L80 40 L100 70 Z"/>
      <circle cx="40" cy="85" r="9"/>
      <circle cx="80" cy="85" r="9"/>
    </g>
    <g transform="translate(800,240)">
      <rect x="0" y="0" width="120" height="120" rx="16"/>
      <path d="M30 90 L60 30 L90 90 Z"/>
    </g>
  </g>
</svg>
