<svg viewBox="0 0 1200 630" xmlns="http://www.w3.org/2000/svg">
  <rect width="1200" height="630" fill="#0a0a0a"/>
  <circle cx="600" cy="80" r="260" fill="#7B5CFF" opacity="0.14"/>
  <circle cx="1080" cy="560" r="200" fill="#e8c84a" opacity="0.12"/>
  <g transform="translate(190,220)">
    <rect x="0" y="0" width="240" height="200" rx="14" fill="none" stroke="#f2f0eb" stroke-opacity="0.4" stroke-width="2"/>
    <rect x="24" y="24" width="192" height="70" rx="8" fill="#f2f0eb" fill-opacity="0.1"/>
    <rect x="24" y="110" width="140" height="10" rx="5" fill="#f2f0eb" fill-opacity="0.4"/>
    <rect x="24" y="132" width="100" height="10" rx="5" fill="#f2f0eb" fill-opacity="0.25"/>
  </g>
  <g transform="translate(480,190)">
    <rect x="0" y="0" width="240" height="260" rx="14" fill="#e8c84a"/>
    <rect x="24" y="24" width="192" height="60" rx="8" fill="#0a0a0a" fill-opacity="0.15"/>
    <rect x="24" y="98" width="84" height="60" rx="8" fill="#0a0a0a" fill-opacity="0.15"/>
    <rect x="120" y="98" width="96" height="60" rx="8" fill="#0a0a0a" fill-opacity="0.15"/>
    <rect x="24" y="172" width="192" height="10" rx="5" fill="#0a0a0a" fill-opacity="0.35"/>
  </g>
  <g transform="translate(770,220)">
    <rect x="0" y="0" width="240" height="200" rx="14" fill="none" stroke="#f2f0eb" stroke-opacity="0.4" stroke-width="2"/>
    <circle cx="56" cy="60" r="20" fill="#f2f0eb" fill-opacity="0.2"/>
    <rect x="92" y="50" width="120" height="10" rx="5" fill="#f2f0eb" fill-opacity="0.4"/>
    <rect x="92" y="70" width="80" height="10" rx="5" fill="#f2f0eb" fill-opacity="0.25"/>
    <rect x="24" y="110" width="192" height="10" rx="5" fill="#f2f0eb" fill-opacity="0.4"/>
    <rect x="24" y="132" width="150" height="10" rx="5" fill="#f2f0eb" fill-opacity="0.25"/>
  </g>
</svg>
